<?xml version="1.0" encoding="UTF-8" standalone="no"?>
<svg
   version="1.1"
   width="45"
   height="45"
   id="svg79"
   sodipodi:docname="queen_black.svg"
   inkscape:version="1.2.2 (732a01da63, 2022-12-09)"
   xmlns:inkscape="http://www.inkscape.org/namespaces/inkscape"
   xmlns:sodipodi="http://sodipodi.sourceforge.net/DTD/sodipodi-0.dtd"
   xmlns="http://www.w3.org/2000/svg"
   xmlns:svg="http://www.w3.org/2000/svg">
  <defs
     id="defs83">
    <filter
       style="color-interpolation-filters:sRGB;"
       inkscape:label="Drop Shadow"
       id="filter253"
       x="-0.14566216"
       y="-0.070550872"
       width="1.2113378"
       height="1.213684">
      <feFlood
         flood-opacity="0.498039"
         flood-color="rgb(0,0,0)"
         result="flood"
         id="feFlood243" />
      <feComposite
         in="flood"
         in2="SourceGraphic"
         operator="in"
         result="composite1"
         id="feComposite245" />
      <feGaussianBlur
         in="composite1"
         stdDeviation="0.7"
         result="blur"
         id="feGaussianBlur247" />
      <feOffset
         dx="-2.9595"
         dy="2.5"
         result="offset"
         id="feOffset249" />
      <feComposite
         in="SourceGraphic"
         in2="offset"
         operator="over"
         result="composite2"
         id="feComposite251" />
    </filter>
  </defs>
  <sodipodi:namedview
     id="namedview81"
     pagecolor="#ffffff"
     bordercolor="#000000"
     borderopacity="0.25"
     inkscape:showpageshadow="2"
     inkscape:pageopacity="0.0"
     inkscape:pagecheckerboard="true"
     inkscape:deskcolor="#d1d1d1"
     showgrid="false"
     inkscape:zoom="25.911111"
     inkscape:cx="22.5"
     inkscape:cy="22.5"
     inkscape:window-width="2560"
     inkscape:window-height="1369"
     inkscape:window-x="-8"
     inkscape:window-y="-8"
     inkscape:window-maximized="1"
     inkscape:current-layer="svg79" />
  <g
     style="fill:#000000;stroke:#000000;stroke-width:1.5;stroke-linecap:round;stroke-linejoin:round;filter:url(#filter253)"
     id="g77">
    <path
       d="M 9,26 C 17.5,24.5 30,24.5 36,26 L 38.5,13.5 L 31,25 L 30.7,10.9 L 25.5,24.5 L 22.5,10 L 19.5,24.5 L 14.3,10.9 L 14,25 L 6.5,13.5 L 9,26 z"
       style="stroke-linecap:butt;fill:#000000"
       id="path47" />
    <path
       d="m 9,26 c 0,2 1.5,2 2.5,4 1,1.5 1,1 0.5,3.5 -1.5,1 -1,2.5 -1,2.5 -1.5,1.5 0,2.5 0,2.5 6.5,1 16.5,1 23,0 0,0 1.5,-1 0,-2.5 0,0 0.5,-1.5 -1,-2.5 -0.5,-2.5 -0.5,-2 0.5,-3.5 1,-2 2.5,-2 2.5,-4 -8.5,-1.5 -18.5,-1.5 -27,0 z"
       id="path49" />
    <path
       d="M 11.5,30 C 15,29 30,29 33.5,30"
       id="path51" />
    <path
       d="m 12,33.5 c 6,-1 15,-1 21,0"
       id="path53" />
    <circle
       cx="6"
       cy="12"
       r="2"
       id="circle55" />
    <circle
       cx="14"
       cy="9"
       r="2"
       id="circle57" />
    <circle
       cx="22.5"
       cy="8"
       r="2"
       id="circle59" />
    <circle
       cx="31"
       cy="9"
       r="2"
       id="circle61" />
    <circle
       cx="39"
       cy="12"
       r="2"
       id="circle63" />
    <path
       d="M 11,38.5 A 35,35 1 0 0 34,38.5"
       style="fill:none; stroke:#000000;stroke-linecap:butt;"
       id="path65" />
    <g
       style="fill:none; stroke:#ffffff;"
       id="g75">
      <path
         d="M 11,29 A 35,35 1 0 1 34,29"
         id="path67" />
      <path
         d="M 12.5,31.5 L 32.5,31.5"
         id="path69" />
      <path
         d="M 11.5,34.5 A 35,35 1 0 0 33.5,34.5"
         id="path71" />
      <path
         d="M 10.5,37.5 A 35,35 1 0 0 34.5,37.5"
         id="path73" />
    </g>
  </g>
</svg>
